<svg width="14" height="16" viewBox="0 0 14 16" fill="none" xmlns="http://www.w3.org/2000/svg">
<path d="M11.2295 3.56465H10.209C10.0996 2.75364 9.70322 2.00866 9.09177 1.46475C8.48031 0.920839 7.69422 0.614002 6.87598 0.599854C6.05774 0.614002 5.27164 0.920839 4.66019 1.46475C4.04873 2.00866 3.65238 2.75364 3.54298 3.56465H2.52298C1.96176 3.56502 1.42363 3.78807 1.02672 4.18483C0.629811 4.5816 0.406558 5.11964 0.405975 5.68085V13.3964C0.406478 13.9575 0.62958 14.4955 1.02632 14.8924C1.42306 15.2892 1.96103 15.5124 2.52218 15.5131H11.2292C11.7904 15.5126 12.3285 15.2894 12.7254 14.8926C13.1223 14.4957 13.3455 13.9576 13.346 13.3964V5.68085C13.3454 5.11973 13.1222 4.58176 12.7254 4.18501C12.3286 3.78826 11.7906 3.56516 11.2295 3.56465ZM6.87598 1.69945C7.40339 1.71092 7.91109 1.90202 8.31516 2.24117C8.71922 2.58033 8.99545 3.04722 9.09818 3.56465H4.65378C4.7565 3.04722 5.03273 2.58033 5.43679 2.24117C5.84086 1.90202 6.34857 1.71092 6.87598 1.69945ZM12.246 13.3964C12.2457 13.6659 12.1385 13.9244 11.9479 14.1151C11.7574 14.3057 11.499 14.413 11.2294 14.4135H2.52248C2.25292 14.413 1.99454 14.3057 1.80399 14.115C1.61344 13.9244 1.50627 13.6659 1.50598 13.3964V5.68085C1.50629 5.41133 1.6135 5.15294 1.80408 4.96236C1.99466 4.77178 2.25305 4.66457 2.52258 4.66425H11.2296C11.4991 4.66462 11.7574 4.77185 11.9479 4.96243C12.1385 5.15301 12.2457 5.41137 12.246 5.68085V13.3964Z" fill="white" fill-opacity="0.8"/>
</svg>
