<svg width="14" height="17" viewBox="0 0 14 17" fill="none" xmlns="http://www.w3.org/2000/svg">
<path d="M13.0689 6.21891C12.548 6.53781 12.1166 6.98366 11.8149 7.51472C11.5133 8.04578 11.3513 8.6447 11.3441 9.25541C11.3462 9.94276 11.5498 10.6144 11.9298 11.1872C12.3098 11.7599 12.8495 12.2086 13.482 12.4777C13.2326 13.2823 12.8636 14.0448 12.3872 14.7395C11.7056 15.7207 10.9929 16.7018 9.90851 16.7018C8.82411 16.7018 8.54521 16.0718 7.29551 16.0718C6.07681 16.0718 5.64301 16.7225 4.65151 16.7225C3.66001 16.7225 2.96811 15.8136 2.17281 14.6982C1.12228 13.1357 0.54492 11.3032 0.51001 9.42061C0.51001 6.32221 2.52401 4.68011 4.50691 4.68011C5.56041 4.68011 6.43831 5.37201 7.09931 5.37201C7.72931 5.37201 8.71051 4.63871 9.90851 4.63871C10.5245 4.62282 11.1349 4.75863 11.686 5.03419C12.2371 5.30975 12.712 5.7166 13.0689 6.21891ZM9.34051 3.32711C9.86861 2.70587 10.1676 1.92224 10.1874 1.10711C10.1883 0.999651 10.1779 0.892397 10.1564 0.787109C9.24927 0.875723 8.41041 1.30808 7.81191 1.99551C7.27872 2.59199 6.96851 3.3547 6.93401 4.15401C6.93441 4.25122 6.9448 4.34813 6.96501 4.44321C7.03652 4.45673 7.10913 4.46366 7.18191 4.46391C7.59998 4.43064 8.00693 4.31271 8.37801 4.11729C8.74909 3.92186 9.07656 3.65302 9.34051 3.32711Z" fill="white" fill-opacity="0.8"/>
</svg>
