<svg width="15" height="16" viewBox="0 0 15 16" fill="none" xmlns="http://www.w3.org/2000/svg">
<path d="M14.264 13.7383L10.394 9.86833C11.095 8.93933 11.516 7.78733 11.516 6.53633C11.516 3.47633 9.02695 0.986328 5.96595 0.986328C2.90595 0.986328 0.415955 3.47633 0.415955 6.53633C0.415955 9.59733 2.90595 12.0863 5.96595 12.0863C7.21695 12.0863 8.36895 11.6653 9.29795 10.9643L13.168 14.8343C13.319 14.9853 13.518 15.0623 13.716 15.0623C13.914 15.0623 14.112 14.9863 14.264 14.8343C14.567 14.5313 14.567 14.0413 14.264 13.7383ZM1.51595 6.53633C1.51595 4.08233 3.51295 2.08633 5.96595 2.08633C8.41995 2.08633 10.416 4.08333 10.416 6.53633C10.416 8.98933 8.41995 10.9863 5.96595 10.9863C3.51195 10.9863 1.51595 8.99033 1.51595 6.53633Z" fill="white" fill-opacity="0.8"/>
</svg>
